
        <svg xmlns="http://www.w3.org/2000/svg" xmlns:xlink="http://www.w3.org/1999/xlink" version="1.1" width="3400" height="1927.7823022878356" viewBox="0 0 3400 1927.7823022878356">
			
			<g transform="scale(20) translate(10, 10)">
				<defs id="SvgjsDefs1029"/><g id="SvgjsG1030" featureKey="ZfhXLo-0" transform="matrix(3.2952550760534374,0,0,3.2952550760534374,-3.2952550760534374,-7.051843851490271)" fill="#000"><path d="M1 20 l0 -17.58 l13.52 0 l0 3.4 l-10.1 0 l0 3.68 l8.26 0 l0 3.42 l-8.26 0 l0 7.08 l-3.42 0 z M16.32 20 l0 -17.58 l3.42 0 l0 14.16 l10.1 0 l0 3.42 l-13.52 0 z M40.1 20.26 c-5 0 -9.06 -4.06 -9.06 -9.06 c0 -4.98 4.06 -9.06 9.06 -9.06 c1.96 0 3.82 0.62 5.38 1.78 l-2.02 2.74 c-0.98 -0.72 -2.14 -1.1 -3.36 -1.1 c-3.12 0 -5.64 2.54 -5.64 5.64 c0 3.12 2.52 5.66 5.64 5.66 c1.06 0 2.1 -0.3 3 -0.88 l0 -5.42 l3.42 0 l0 7.1 l-0.62 0.5 c-1.62 1.36 -3.68 2.1 -5.8 2.1 z"/></g><g id="SvgjsG1031" featureKey="PfFktW-0" transform="matrix(0.42937653531422343,0,0,0.42937653531422343,26.218534836763432,67.64701678303103)" fill="#000"><path d="M10.72 5.84 l0 1.8 l-6.98 0 l0 4.44 l6.5 0 l0 1.8 l-6.5 0 l0 6.12 l-1.92 0 l0 -14.16 l8.9 0 z M15.22 5.84 l0 14.16 l-1.92 0 l0 -14.16 l1.92 0 z M25.38 5.48 c2.36 0 4.11334 0.6133 5.26 1.83996 l-1.36 1.46 c-1.05334 -1 -2.36 -1.5 -3.92 -1.5 s-2.84 0.53666 -3.84 1.61 s-1.5 2.41668 -1.5 4.03002 c0 1.62666 0.53 2.97332 1.59 4.03998 s2.36334 1.6 3.91 1.6 c1.46666 0 2.62666 -0.24666 3.48 -0.74 l0 -3.94 l-3.14 0 l0 -1.8 l5.06 0 l0 6.98 c-0.69334 0.41334 -1.53 0.73334 -2.51 0.96 s-1.93 0.34 -2.85 0.34 c-2.22666 0 -4.04666 -0.69334 -5.46 -2.08 s-2.12 -3.17332 -2.12 -5.35998 c0 -2.10666 0.69666 -3.87332 2.09 -5.29998 s3.16334 -2.14 5.31 -2.14 z M36.08 5.84 l0 8.74 c0 1.16 0.32334 2.11334 0.97 2.86 s1.51 1.12 2.59 1.12 s1.94334 -0.37334 2.59 -1.12 s0.97 -1.7 0.97 -2.86 l0 -8.74 l1.92 0 l0 9.06 c0 0.97334 -0.23 1.88334 -0.69 2.73 s-1.11334 1.51332 -1.96 1.99998 s-1.79 0.73 -2.83 0.73 c-1.6 0 -2.91334 -0.52334 -3.94 -1.57 s-1.54 -2.34332 -1.54 -3.88998 l0 -9.06 l1.92 0 z M57.64 5.84 l0 1.8 l-7.22 0 l0 4.22 l6.72 0 l0 1.8 l-6.72 0 l0 4.54 l7.58 0 l0 1.8 l-9.5 0 l0 -14.16 l9.14 0 z M65.8 5.84 c1.38666 0 2.47334 0.34666 3.26 1.04 s1.18 1.66668 1.18 2.92002 c0 0.94666 -0.32334 1.77332 -0.97 2.47998 s-1.47666 1.12666 -2.49 1.26 l-0.02 0 l4.02 6.46 l-2.4 0 l-3.6 -6.24 l-2.14 0 l0 6.24 l-1.92 0 l0 -14.16 l5.08 0 z M65.24002 12.08 c1 0 1.74334 -0.183359 2.23 -0.55002 s0.73 -0.94332 0.73 -1.72998 c0 -1.52 -0.98666 -2.28 -2.96 -2.28 l-2.6 0 l0 4.56 l2.6 0 z M79.44 5.48 c2.10666 0 3.86336 0.69998 5.27002 2.09998 s2.11 3.18 2.11 5.34 c0 1.37334 -0.31334 2.63 -0.94 3.77 s-1.51 2.03666 -2.65 2.69 s-2.40334 0.98 -3.79 0.98 c-1.37334 0 -2.62668 -0.32334 -3.76002 -0.97 s-2.02 -1.54 -2.66 -2.68 s-0.96 -2.40334 -0.96 -3.79 c0 -2.10666 0.69 -3.87332 2.07 -5.29998 s3.15 -2.14 5.31 -2.14 z M74.10004 12.91998 c0 1.6 0.49998 2.94002 1.49998 4.02002 s2.28 1.62 3.84 1.62 c1.53334 0 2.80668 -0.53334 3.82002 -1.6 s1.52 -2.41332 1.52 -4.03998 c0 -1.61334 -0.5 -2.95668 -1.5 -4.03002 s-2.28666 -1.61 -3.86 -1.61 c-1.52 0 -2.78666 0.53334 -3.8 1.6 s-1.52 2.41332 -1.52 4.03998 z M95.76 5.84 l6.06 14.16 l-2.24 0 l-1.42 -3.5 l-6.74 0 l-1.4 3.5 l-2.24 0 l6.24 -14.16 l1.74 0 z M92.1 14.82 l5.36 0 l-2.64 -6.5 l-0.04 0 z M111.14 5.84 l0 12.36 l6.5 0 l0 1.8 l-8.42 0 l0 -14.16 l1.92 0 z M125.78 5.84 l6.06 14.16 l-2.24 0 l-1.42 -3.5 l-6.74 0 l-1.4 3.5 l-2.24 0 l6.24 -14.16 l1.74 0 z M122.12 14.82 l5.36 0 l-2.64 -6.5 l-0.04 0 z M140.36 8.44 l-3.42 11.56 l-2.02 0 l-4.14 -14.16 l2 0 l3.12 11.32 l0.04 0 l3.34 -11.32 l2.2 0 l3.34 11.32 l0.04 0 l3.12 -11.32 l2 0 l-4.12 14.16 l-2.02 0 l-3.44 -11.56 l-0.04 0 z M163.9 5.48 c2.36 0 4.11334 0.6133 5.26 1.83996 l-1.36 1.46 c-1.05334 -1 -2.36 -1.5 -3.92 -1.5 s-2.84 0.53666 -3.84 1.61 s-1.5 2.41668 -1.5 4.03002 c0 1.62666 0.53 2.97332 1.59 4.03998 s2.36334 1.6 3.91 1.6 c1.46666 0 2.62666 -0.24666 3.48 -0.74 l0 -3.94 l-3.14 0 l0 -1.8 l5.06 0 l0 6.98 c-0.69334 0.41334 -1.53 0.73334 -2.51 0.96 s-1.93 0.34 -2.85 0.34 c-2.22666 0 -4.04666 -0.69334 -5.46 -2.08 s-2.12 -3.17332 -2.12 -5.35998 c0 -2.10666 0.69666 -3.87332 2.09 -5.29998 s3.16334 -2.14 5.31 -2.14 z M178.02 5.84 c1.38666 0 2.47334 0.34666 3.26 1.04 s1.18 1.66668 1.18 2.92002 c0 0.94666 -0.32334 1.77332 -0.97 2.47998 s-1.47666 1.12666 -2.49 1.26 l-0.02 0 l4.02 6.46 l-2.4 0 l-3.6 -6.24 l-2.14 0 l0 6.24 l-1.92 0 l0 -14.16 l5.08 0 z M177.46002 12.08 c1 0 1.74334 -0.183359 2.23 -0.55002 s0.73 -0.94332 0.73 -1.72998 c0 -1.52 -0.98666 -2.28 -2.96 -2.28 l-2.6 0 l0 4.56 l2.6 0 z M191.66 5.48 c2.10666 0 3.86336 0.69998 5.27002 2.09998 s2.11 3.18 2.11 5.34 c0 1.37334 -0.31334 2.63 -0.94 3.77 s-1.51 2.03666 -2.65 2.69 s-2.40334 0.98 -3.79 0.98 c-1.37334 0 -2.62668 -0.32334 -3.76002 -0.97 s-2.02 -1.54 -2.66 -2.68 s-0.96 -2.40334 -0.96 -3.79 c0 -2.10666 0.69 -3.87332 2.07 -5.29998 s3.15 -2.14 5.31 -2.14 z M186.32004 12.91998 c0 1.6 0.49998 2.94002 1.49998 4.02002 s2.28 1.62 3.84 1.62 c1.53334 0 2.80668 -0.53334 3.82002 -1.6 s1.52 -2.41332 1.52 -4.03998 c0 -1.61334 -0.5 -2.95668 -1.5 -4.03002 s-2.28666 -1.61 -3.86 -1.61 c-1.52 0 -2.78666 0.53334 -3.8 1.6 s-1.52 2.41332 -1.52 4.03998 z M203.46 5.84 l0 8.74 c0 1.16 0.32334 2.11334 0.97 2.86 s1.51 1.12 2.59 1.12 s1.94334 -0.37334 2.59 -1.12 s0.97 -1.7 0.97 -2.86 l0 -8.74 l1.92 0 l0 9.06 c0 0.97334 -0.23 1.88334 -0.69 2.73 s-1.11334 1.51332 -1.96 1.99998 s-1.79 0.73 -2.83 0.73 c-1.6 0 -2.91334 -0.52334 -3.94 -1.57 s-1.54 -2.34332 -1.54 -3.88998 l0 -9.06 l1.92 0 z M220.96 5.84 c1.37334 0 2.45664 0.34 3.24998 1.02 s1.19 1.66 1.19 2.94 c0 1.24 -0.39334 2.21 -1.18 2.91 s-1.87332 1.05 -3.25998 1.05 l-3.16 0 l0 6.24 l-1.92 0 l0 -14.16 l5.08 0 z M220.39996 12.08 c1 0 1.74334 -0.183359 2.23 -0.55002 s0.73 -0.94332 0.73 -1.72998 c0 -1.52 -0.98666 -2.28 -2.96 -2.28 l-2.6 0 l0 4.56 l2.6 0 z"/></g>
			</g>
		</svg>
	